<svg width="24" height="24" viewBox="0 0 24 24" fill="none" xmlns="http://www.w3.org/2000/svg">
<path fill-rule="evenodd" clip-rule="evenodd" d="M3.66667 2C2.74619 2 2 2.74619 2 3.66667V20.3333C2 21.2538 2.74619 22 3.66667 22H20.3333C21.2538 22 22 21.2538 22 20.3333V3.66667C22 2.74619 21.2538 2 20.3333 2H3.66667ZM8.13418 6.44747C8.14043 7.50997 7.34512 8.16466 6.40137 8.15997C5.5123 8.15528 4.7373 7.44747 4.74199 6.44903C4.74668 5.50997 5.48887 4.75528 6.45293 4.77716C7.43106 4.79903 8.14043 5.51622 8.13418 6.44747ZM12.3108 9.51307H9.51079H9.50922V19.024H12.4686V18.8021C12.4686 18.38 12.4682 17.9578 12.4679 17.5354C12.467 16.409 12.466 15.2813 12.4718 14.1552C12.4733 13.8818 12.4858 13.5974 12.5561 13.3364C12.8201 12.3614 13.6968 11.7318 14.6749 11.8866C15.303 11.9849 15.7186 12.349 15.8936 12.9412C16.0014 13.3114 16.0499 13.7099 16.0546 14.0959C16.0672 15.2599 16.0654 16.4239 16.0637 17.588C16.063 17.9989 16.0623 18.41 16.0623 18.8209V19.0224H19.0311V18.7943C19.0311 18.2921 19.0309 17.79 19.0306 17.2879C19.03 16.0329 19.0293 14.7779 19.0327 13.5224C19.0342 12.9552 18.9733 12.3959 18.8342 11.8474C18.6264 11.0318 18.1968 10.3568 17.4983 9.86933C17.003 9.52243 16.4592 9.299 15.8514 9.274C15.7822 9.27112 15.7124 9.26736 15.6423 9.26357C15.3316 9.24677 15.0157 9.2297 14.7186 9.28962C13.8686 9.45993 13.1218 9.849 12.5577 10.5349C12.4921 10.6136 12.428 10.6934 12.3323 10.8127L12.3108 10.8397V9.51307ZM4.9796 19.0271H7.92491V9.51926H4.9796V19.0271Z" fill="#39473F"/>
</svg>
